<svg width="157" height="156" viewBox="0 0 157 156" fill="none" xmlns="http://www.w3.org/2000/svg">
<path fill-rule="evenodd" clip-rule="evenodd" d="M104.261 8.1412C106.026 6.05579 105.766 2.93484 103.68 1.17036C101.595 -0.594118 98.4738 -0.33395 96.7093 1.75146L84.9871 15.6058V6.59507C84.9871 3.13489 82.1821 0.329853 78.7219 0.329853C75.2617 0.329853 72.4567 3.13489 72.4567 6.59507V15.7811L60.3807 1.72331C58.6007 -0.348849 55.4779 -0.585665 53.4057 1.19436C51.3336 2.97439 51.0968 6.0972 52.8768 8.16936L72.4567 30.9626V37.8742L60.3807 23.8165C58.6007 21.7443 55.4779 21.5075 53.4057 23.2875C51.3336 25.0675 51.0968 28.1903 52.8768 30.2625L72.4567 53.0557V58.0358C72.4567 58.3716 72.4831 58.7013 72.534 59.0227C70.4522 59.7076 68.5231 60.7286 66.8108 62.0216C66.3192 61.3685 65.6908 60.8014 64.9382 60.3669L60.6253 57.8768L50.6758 29.5235C49.7712 26.9459 46.9484 25.5896 44.3708 26.4941C41.7932 27.3986 40.4368 30.2215 41.3414 32.7991L47.4778 50.2861L41.4921 46.8303L31.5425 18.477C30.638 15.8993 27.8152 14.543 25.2376 15.4476C22.6599 16.3521 21.3036 19.1749 22.2081 21.7525L28.3446 39.2395L20.3892 34.6465C17.3926 32.9164 13.5609 33.9431 11.8308 36.9397C10.1007 39.9364 11.1274 43.7681 14.124 45.4982L21.9275 50.0035L4.06823 53.2281C1.37997 53.7135 -0.405822 56.2862 0.0795546 58.9745C0.564932 61.6627 3.13767 63.4485 5.82593 62.9632L35.1909 57.6612L41.0607 61.0501L23.2014 64.2747C20.5132 64.7601 18.7274 67.3328 19.2128 70.0211C19.6982 72.7093 22.2709 74.4951 24.9592 74.0097L54.3241 68.7077L58.673 71.2186C59.0644 71.4445 59.4701 71.6235 59.8835 71.7572C59.2689 73.668 58.937 75.7056 58.937 77.8207C58.937 78.9751 59.0358 80.1063 59.2256 81.2065C59.0387 81.2911 58.8544 81.3857 58.673 81.4904L54.3242 84.0012L24.9592 78.6993C22.2709 78.2139 19.6982 79.9997 19.2128 82.6879C18.7274 85.3762 20.5132 87.9489 23.2014 88.4343L41.0607 91.6589L35.1909 95.0478L5.82593 89.7458C3.13767 89.2605 0.564932 91.0462 0.0795546 93.7345C-0.405822 96.4228 1.37997 98.9955 4.06823 99.4809L21.9275 102.705L14.124 107.211C11.1274 108.941 10.1007 112.773 11.8308 115.769C13.5609 118.766 17.3926 119.793 20.3892 118.062L28.3446 113.469L22.2081 130.956C21.3036 133.534 22.6599 136.357 25.2376 137.261C27.8152 138.166 30.638 136.81 31.5425 134.232L41.4921 105.879L47.4778 102.423L41.3414 119.91C40.4368 122.488 41.7932 125.31 44.3708 126.215C46.9484 127.119 49.7712 125.763 50.6758 123.185L60.6253 94.8322L64.9382 92.3421C65.0094 92.301 65.0794 92.2588 65.1484 92.2153C67.1559 94.1091 69.5595 95.5875 72.2218 96.5131C72.1595 96.8679 72.1269 97.233 72.1269 97.6056V102.627L52.8528 125.407C51.0883 127.493 51.3485 130.613 53.4339 132.378C55.5193 134.142 58.6402 133.882 60.4047 131.797L72.1269 117.943V124.72L52.8528 147.5C51.0883 149.586 51.3485 152.707 53.4339 154.471C55.5193 156.236 58.6402 155.975 60.4047 153.89L72.1269 140.036V149.046C72.1269 152.507 74.932 155.312 78.3921 155.312C81.8523 155.312 84.6574 152.507 84.6574 149.046V139.86L96.7333 153.918C98.5133 155.99 101.636 156.227 103.708 154.447C105.78 152.667 106.017 149.544 104.237 147.472L84.6574 124.679V117.767L96.7333 131.825C98.5133 133.897 101.636 134.134 103.708 132.354C105.78 130.574 106.017 127.451 104.237 125.379L84.6574 102.586V97.6056C84.6574 97.3048 84.6361 97.0089 84.5951 96.7193C87.317 95.8743 89.7873 94.4575 91.8653 92.6093L91.8794 92.6176L91.8968 92.6277L96.2457 95.1385L106.337 123.22C107.26 125.791 110.093 127.126 112.664 126.202C115.235 125.279 116.57 122.446 115.646 119.875L109.509 102.796L115.379 106.185L125.47 134.267C126.394 136.838 129.226 138.173 131.797 137.249C134.368 136.325 135.703 133.492 134.779 130.922L128.642 113.843L136.446 118.348C139.442 120.078 143.274 119.051 145.004 116.055C146.734 113.058 145.708 109.226 142.711 107.496L134.756 102.903L152.968 99.4742C155.653 98.9687 157.419 96.3827 156.914 93.6981C156.408 91.0136 153.822 89.2471 151.138 89.7525L121.608 95.3126L115.623 91.8568L133.835 88.4276C136.519 87.9221 138.286 85.3361 137.78 82.6515C137.275 79.967 134.689 78.2005 132.004 78.706L102.475 84.266L98.1621 81.776L98.1364 81.7612L98.1166 81.75C98.3725 80.4801 98.5068 79.1661 98.5068 77.8207C98.5068 75.5375 98.12 73.3446 97.4085 71.3039C97.6642 71.1986 97.9159 71.0751 98.1621 70.933L102.475 68.4429L132.004 74.003C134.689 74.5085 137.275 72.742 137.78 70.0575C138.286 67.3729 136.519 64.7869 133.835 64.2814L115.623 60.8522L121.608 57.3964L151.138 62.9565C153.822 63.4619 156.408 61.6954 156.914 59.0109C157.419 56.3263 155.653 53.7403 152.968 53.2348L134.756 49.8056L142.711 45.2126C145.708 43.4825 146.734 39.6508 145.004 36.6542C143.274 33.6576 139.442 32.6309 136.446 34.361L128.642 38.8663L134.779 21.7874C135.703 19.2166 134.368 16.3837 131.797 15.4599C129.226 14.5362 126.394 15.8713 125.47 18.4421L115.379 46.5239L109.509 49.9129L115.646 32.834C116.57 30.2632 115.235 27.4303 112.664 26.5065C110.093 25.5827 107.26 26.9179 106.337 29.4887L96.2457 57.5705L91.8968 60.0813C91.1835 60.4932 90.5818 61.0241 90.1023 61.6345C88.5256 60.5238 86.7792 59.6378 84.9098 59.0227C84.9607 58.7013 84.9871 58.3716 84.9871 58.0358V53.0142L104.261 30.2343C106.026 28.1489 105.766 25.028 103.68 23.2635C101.595 21.499 98.4738 21.7592 96.7093 23.8446L84.9871 37.6989V30.921L104.261 8.1412ZM78.7219 82.4372C81.2715 82.4372 83.3384 80.3703 83.3384 77.8207C83.3384 75.2711 81.2715 73.2043 78.7219 73.2043C76.1723 73.2043 74.1054 75.2711 74.1054 77.8207C74.1054 80.3703 76.1723 82.4372 78.7219 82.4372Z" fill="url(#paint0_linear_86_405)"/>
<defs>
<linearGradient id="paint0_linear_86_405" x1="78.5" y1="0" x2="78.5" y2="155.641" gradientUnits="userSpaceOnUse">
<stop stop-color="#31CDFF"/>
<stop offset="1" stop-color="#5CF5FF"/>
</linearGradient>
</defs>
</svg>
